<mxfile host="65bd71144e">
    <diagram id="fFWN1DyNbw18HDZ8_LvJ" name="Page-1">
        <mxGraphModel dx="639" dy="1600" grid="1" gridSize="10" guides="1" tooltips="1" connect="1" arrows="1" fold="1" page="1" pageScale="1" pageWidth="1169" pageHeight="827" math="0" shadow="0">
            <root>
                <mxCell id="0"/>
                <mxCell id="1" parent="0"/>
                <mxCell id="36" style="edgeStyle=orthogonalEdgeStyle;html=1;strokeWidth=2;endArrow=openThin;endFill=0;" parent="1" source="29" target="30" edge="1">
                    <mxGeometry relative="1" as="geometry"/>
                </mxCell>
                <mxCell id="29" value="main()" style="strokeWidth=2;html=1;shape=mxgraph.flowchart.start_2;whiteSpace=wrap;" parent="1" vertex="1">
                    <mxGeometry x="40" y="-800" width="40" height="40" as="geometry"/>
                </mxCell>
                <mxCell id="32" style="edgeStyle=none;html=1;endArrow=openThin;endFill=0;strokeWidth=2;dashed=1;dashPattern=1 1;" parent="1" source="30" target="31" edge="1">
                    <mxGeometry relative="1" as="geometry"/>
                </mxCell>
                <mxCell id="35" style="edgeStyle=orthogonalEdgeStyle;html=1;strokeWidth=2;endArrow=openThin;endFill=0;" parent="1" target="34" edge="1">
                    <mxGeometry relative="1" as="geometry">
                        <mxPoint x="310" y="-780" as="sourcePoint"/>
                    </mxGeometry>
                </mxCell>
                <mxCell id="30" value="DefaultChatEngine.Run()" style="rounded=1;whiteSpace=wrap;html=1;absoluteArcSize=1;arcSize=14;strokeWidth=2;" parent="1" vertex="1">
                    <mxGeometry x="160" y="-800" width="160" height="40" as="geometry"/>
                </mxCell>
                <mxCell id="31" value="Check for client register or unregister messages" style="rounded=1;whiteSpace=wrap;html=1;absoluteArcSize=1;arcSize=14;strokeWidth=2;" parent="1" vertex="1">
                    <mxGeometry x="160" y="-720" width="160" height="40" as="geometry"/>
                </mxCell>
                <mxCell id="33" style="edgeStyle=orthogonalEdgeStyle;html=1;strokeWidth=2;endArrow=openThin;endFill=0;" parent="1" source="31" target="31" edge="1">
                    <mxGeometry relative="1" as="geometry">
                        <mxPoint x="190" y="-700" as="targetPoint"/>
                        <Array as="points">
                            <mxPoint x="280" y="-650"/>
                            <mxPoint x="200" y="-650"/>
                        </Array>
                    </mxGeometry>
                </mxCell>
                <mxCell id="34" value="Register Handlers" style="rounded=1;whiteSpace=wrap;html=1;absoluteArcSize=1;arcSize=14;strokeWidth=2;" parent="1" vertex="1">
                    <mxGeometry x="400" y="-800" width="160" height="40" as="geometry"/>
                </mxCell>
                <mxCell id="54" value="chat" style="shape=folder;fontStyle=1;tabWidth=110;tabHeight=40;tabPosition=left;html=1;boundedLbl=1;labelInHeader=1;container=1;collapsible=0;recursiveResize=0;" parent="1" vertex="1">
                    <mxGeometry x="260" y="40" width="240" height="560" as="geometry"/>
                </mxCell>
                <mxCell id="41" value="Client" style="swimlane;fontStyle=0;childLayout=stackLayout;horizontal=1;startSize=26;fillColor=none;horizontalStack=0;resizeParent=1;resizeParentMax=0;resizeLast=0;collapsible=1;marginBottom=0;" parent="54" vertex="1">
                    <mxGeometry x="20" y="50" width="200" height="140" as="geometry"/>
                </mxCell>
                <mxCell id="44" value="+ Connection *websocket.Conn&#10;+ Engine WsServer" style="text;strokeColor=none;fillColor=none;align=left;verticalAlign=top;spacingLeft=4;spacingRight=4;overflow=hidden;rotatable=0;points=[[0,0.5],[1,0.5]];portConstraint=eastwest;" parent="41" vertex="1">
                    <mxGeometry y="26" width="200" height="34" as="geometry"/>
                </mxCell>
                <mxCell id="49" value="" style="line;strokeWidth=1;fillColor=none;align=left;verticalAlign=middle;spacingTop=-1;spacingLeft=3;spacingRight=3;rotatable=0;labelPosition=right;points=[];portConstraint=eastwest;strokeColor=inherit;" parent="41" vertex="1">
                    <mxGeometry y="60" width="200" height="8" as="geometry"/>
                </mxCell>
                <mxCell id="50" value="+ Send(msg []byte)&#10;+ Close()&#10;+ ReadPump()&#10;+ WritePump()" style="text;strokeColor=none;fillColor=none;align=left;verticalAlign=top;spacingLeft=4;spacingRight=4;overflow=hidden;rotatable=0;points=[[0,0.5],[1,0.5]];portConstraint=eastwest;" parent="41" vertex="1">
                    <mxGeometry y="68" width="200" height="72" as="geometry"/>
                </mxCell>
                <mxCell id="45" value="WsServer&#10;&lt;&lt;interface&gt;&gt;" style="swimlane;fontStyle=0;childLayout=stackLayout;horizontal=1;startSize=40;fillColor=none;horizontalStack=0;resizeParent=1;resizeParentMax=0;resizeLast=0;collapsible=1;marginBottom=0;" parent="54" vertex="1">
                    <mxGeometry x="20" y="235" width="200" height="120" as="geometry"/>
                </mxCell>
                <mxCell id="46" value="+ RegisterClient(*Client)&#10;+ UnregisterClient(*Client)&#10;+ Broadcast([ ]byte)&#10;+ GetClients() [ ]*Byte)" style="text;strokeColor=none;fillColor=none;align=left;verticalAlign=top;spacingLeft=4;spacingRight=4;overflow=hidden;rotatable=0;points=[[0,0.5],[1,0.5]];portConstraint=eastwest;" parent="45" vertex="1">
                    <mxGeometry y="40" width="200" height="80" as="geometry"/>
                </mxCell>
                <mxCell id="51" style="edgeStyle=none;html=1;endArrow=block;endFill=0;startSize=6;endSize=10;" parent="54" source="47" target="45" edge="1">
                    <mxGeometry relative="1" as="geometry">
                        <mxPoint x="270" y="360" as="targetPoint"/>
                    </mxGeometry>
                </mxCell>
                <mxCell id="47" value="WsChatEngine" style="swimlane;fontStyle=0;childLayout=stackLayout;horizontal=1;startSize=26;fillColor=none;horizontalStack=0;resizeParent=1;resizeParentMax=0;resizeLast=0;collapsible=1;marginBottom=0;" parent="54" vertex="1">
                    <mxGeometry x="20" y="400" width="200" height="120" as="geometry"/>
                </mxCell>
                <mxCell id="48" value="+ Run()&#10;+ RegisterClient(client *Client)&#10;+ UnregisterClient(client *Client)&#10;+ GetClients() [ ]*Client&#10;+ Broadcasting(message [ ]byte)" style="text;strokeColor=none;fillColor=none;align=left;verticalAlign=top;spacingLeft=4;spacingRight=4;overflow=hidden;rotatable=0;points=[[0,0.5],[1,0.5]];portConstraint=eastwest;" parent="47" vertex="1">
                    <mxGeometry y="26" width="200" height="94" as="geometry"/>
                </mxCell>
                <mxCell id="62" style="edgeStyle=none;html=1;endArrow=none;endFill=0;" edge="1" parent="54">
                    <mxGeometry relative="1" as="geometry">
                        <mxPoint x="119.90000000000006" y="235" as="sourcePoint"/>
                        <mxPoint x="119.90000000000006" y="190" as="targetPoint"/>
                    </mxGeometry>
                </mxCell>
                <mxCell id="63" value="1" style="edgeLabel;html=1;align=center;verticalAlign=middle;resizable=0;points=[];" vertex="1" connectable="0" parent="62">
                    <mxGeometry x="0.7538" y="1" relative="1" as="geometry">
                        <mxPoint x="8" y="3" as="offset"/>
                    </mxGeometry>
                </mxCell>
                <mxCell id="64" value="*" style="edgeLabel;html=1;align=center;verticalAlign=middle;resizable=0;points=[];" vertex="1" connectable="0" parent="62">
                    <mxGeometry x="-0.7248" relative="1" as="geometry">
                        <mxPoint x="7" y="-2" as="offset"/>
                    </mxGeometry>
                </mxCell>
                <mxCell id="56" value="gorilla/websocket" style="shape=folder;fontStyle=1;tabWidth=110;tabHeight=40;tabPosition=left;html=1;boundedLbl=1;labelInHeader=1;container=1;collapsible=0;recursiveResize=0;" parent="1" vertex="1">
                    <mxGeometry x="560" y="80" width="160" height="120" as="geometry"/>
                </mxCell>
                <mxCell id="60" value="&lt;b&gt;Conn&lt;/b&gt;" style="html=1;" parent="56" vertex="1">
                    <mxGeometry x="40" y="60" width="80" height="40" as="geometry"/>
                </mxCell>
                <mxCell id="61" style="edgeStyle=none;html=1;endArrow=diamondThin;endFill=0;startSize=6;endSize=15;" parent="1" source="60" target="41" edge="1">
                    <mxGeometry relative="1" as="geometry">
                        <mxPoint x="540" y="280" as="targetPoint"/>
                    </mxGeometry>
                </mxCell>
            </root>
        </mxGraphModel>
    </diagram>
</mxfile>